<?xml version="1.0" encoding="utf-8"?>
<!-- Generator: Adobe Illustrator 19.2.1, SVG Export Plug-In . SVG Version: 6.00 Build 0)  -->
<svg version="1.1" id="Layer_1" xmlns="http://www.w3.org/2000/svg" xmlns:xlink="http://www.w3.org/1999/xlink" x="0px" y="0px"
	 viewBox="0 0 300 300" style="enable-background:new 0 0 300 300;" xml:space="preserve">
<style type="text/css">
	<!-- .st0{fill:#4F52D2;stroke:#4F52D2;stroke-width:2;stroke-linecap:square;} -->
	.st0{fill:white;stroke:white;stroke-width:2;stroke-linecap:square;}
</style>
<g id="widget" transform="matrix(1,0,0,1,150,150)">
	<path class="st0" d="M47.8,14.4L47.8,14.4l-30,30l12,12l30-30l0,0c16.6-16.6,16.6-43.5,0-60c-16.6-16.6-43.5-16.6-60,0l0,0l-30,30
		l12,12l30-30l0,0c10-10,26.1-10,36,0S57.7,4.4,47.8,14.4z"/>
	<path class="st0" d="M-85.9-10.7l12-12l60,60l-12,12L-85.9-10.7z"/>
	<path class="st0" d="M18-3.9l12,12l-48.5,48.5l-12-12L18-3.9z"/>
	<path class="st0" d="M22-7.9l-8,8c-3.3,3.3-3.3,8.7,0,12l0,0c3.3,3.3,8.7,3.3,12,0l8-8c3.3-3.3,3.3-8.7,0-12l0,0
		C30.7-11.2,25.4-11.2,22-7.9z"/>
	<path class="st0" d="M21.8,40.4l-8,8c-3.3,3.3-3.3,8.7,0,12l0,0c3.3,3.3,8.7,3.3,12,0l8-8c3.3-3.3,3.3-8.7,0-12l0,0
		C30.5,37.1,25.1,37.1,21.8,40.4z"/>
	<path class="st0" d="M-67.1-15.9l-8-8c-3.3-3.3-8.7-3.3-12,0l0,0c-3.3,3.3-3.3,8.7,0,12l8,8c3.3,3.3,8.7,3.3,12,0l0,0
		C-63.8-7.2-63.7-12.6-67.1-15.9z"/>
</g>
</svg>
